<svg width="166" height="37" viewBox="0 0 166 37" fill="none" xmlns="http://www.w3.org/2000/svg">
<path d="M16.3373 11.9648L16.3547 18.683M16.3547 18.683L16.4098 25.3689M16.3547 18.683H7.21484M16.8627 12.8435H11.2013L9.754 10.3047M16.8445 24.4995L11.045 24.5223L10.0083 26.8072" stroke="#B8BBE6" stroke-width="1.73892"/>
<path d="M20.2373 12.8435V18.683M20.2373 18.683V25.3926M20.2373 18.683H29.3771M19.3848 12.8435L25.3907 12.8435L26.838 10.3047M19.7288 24.5223H25.547L26.5837 26.8072" stroke="#794CFA" stroke-width="1.73892"/>
<path d="M8.99512 4.86914C10.4906 4.86914 11.703 6.0817 11.7031 7.57715C11.7031 9.07273 10.4907 10.2852 8.99512 10.2852C7.49967 10.285 6.28711 9.07263 6.28711 7.57715C6.28727 6.08181 7.49977 4.8693 8.99512 4.86914Z" stroke="#B8BBE6" stroke-width="1.73892"/>
<path d="M27.5967 4.86914C26.1012 4.86914 24.8888 6.0817 24.8887 7.57715C24.8887 9.07273 26.1011 10.2852 27.5967 10.2852C29.0921 10.285 30.3047 9.07263 30.3047 7.57715C30.3045 6.08181 29.092 4.8693 27.5967 4.86914Z" stroke="#794CFA" stroke-width="1.73892"/>
<path d="M4.70215 15.6035C6.19763 15.6035 7.40999 16.8161 7.41016 18.3115C7.41016 19.8071 6.19773 21.0195 4.70215 21.0195C3.2067 21.0194 1.99414 19.807 1.99414 18.3115C1.9943 16.8162 3.2068 15.6037 4.70215 15.6035Z" stroke="#B8BBE6" stroke-width="1.73892"/>
<path d="M31.8857 15.6035C30.3903 15.6035 29.1779 16.8161 29.1777 18.3115C29.1777 19.8071 30.3902 21.0195 31.8857 21.0195C33.3812 21.0194 34.5938 19.807 34.5938 18.3115C34.5936 16.8162 33.3811 15.6037 31.8857 15.6035Z" stroke="#794CFA" stroke-width="1.73892"/>
<path d="M8.99512 27.0527C10.4906 27.0527 11.703 28.2653 11.7031 29.7607C11.7031 31.2563 10.4907 32.4688 8.99512 32.4688C7.49967 32.4686 6.28711 31.2562 6.28711 29.7607C6.28727 28.2654 7.49977 27.0529 8.99512 27.0527Z" stroke="#B8BBE6" stroke-width="1.73892"/>
<path d="M27.5967 27.0527C26.1012 27.0527 24.8888 28.2653 24.8887 29.7607C24.8887 31.2563 26.1011 32.4688 27.5967 32.4688C29.0921 32.4686 30.3047 31.2562 30.3047 29.7607C30.3045 28.2654 29.092 27.0529 27.5967 27.0527Z" stroke="#794CFA" stroke-width="1.73892"/>
<path d="M18.1748 30.584C16.6793 30.584 15.467 31.7965 15.4668 33.292C15.4668 34.7876 16.6792 36 18.1748 36C19.6702 35.9998 20.8828 34.7875 20.8828 33.292C20.8826 31.7966 19.6701 30.5841 18.1748 30.584Z" stroke="#B8BBE6" stroke-width="1.73892"/>
<path d="M18.1748 1.31055C16.6793 1.31055 15.467 2.52311 15.4668 4.01855C15.4668 5.51414 16.6792 6.72656 18.1748 6.72656C19.6702 6.7264 20.8828 5.51404 20.8828 4.01855C20.8826 2.52321 19.6701 1.31071 18.1748 1.31055Z" stroke="#B8BBE6" stroke-width="1.73892"/>
<path d="M61.9517 15.2644H58.1837C58.1149 14.7769 57.9743 14.3439 57.7621 13.9654C57.5499 13.5811 57.2775 13.2542 56.9449 12.9846C56.6122 12.7151 56.228 12.5086 55.7921 12.3652C55.3619 12.2218 54.8945 12.1501 54.3898 12.1501C53.4779 12.1501 52.6836 12.3767 52.0068 12.8298C51.33 13.2771 50.8053 13.9309 50.4325 14.7912C50.0597 15.6458 49.8733 16.6839 49.8733 17.9055C49.8733 19.1615 50.0597 20.2168 50.4325 21.0713C50.811 21.9259 51.3386 22.5711 52.0154 23.007C52.6922 23.4429 53.475 23.6608 54.364 23.6608C54.863 23.6608 55.3247 23.5949 55.7491 23.4629C56.1792 23.331 56.5606 23.1389 56.8932 22.8866C57.2259 22.6285 57.5012 22.3159 57.7191 21.9488C57.9428 21.5818 58.0977 21.1631 58.1837 20.6928L61.9517 20.71C61.8542 21.5187 61.6105 22.2987 61.2205 23.05C60.8362 23.7956 60.3172 24.4638 59.6634 25.0545C59.0153 25.6395 58.241 26.104 57.3406 26.4482C56.4459 26.7865 55.4336 26.9557 54.3038 26.9557C52.7323 26.9557 51.3272 26.6001 50.0884 25.889C48.8553 25.1778 47.8803 24.1483 47.1634 22.8005C46.4522 21.4527 46.0966 19.8211 46.0966 17.9055C46.0966 15.9842 46.4579 14.3496 47.1806 13.0018C47.9032 11.654 48.8839 10.6274 50.1228 9.92199C51.3616 9.21082 52.7553 8.85523 54.3038 8.85523C55.3246 8.85523 56.271 8.99862 57.1427 9.28538C58.0202 9.57214 58.7974 9.99082 59.4741 10.5414C60.1509 11.0863 60.7015 11.7544 61.1259 12.5459C61.556 13.3373 61.8313 14.2435 61.9517 15.2644ZM70.5245 26.9729C69.1882 26.9729 68.0326 26.689 67.0576 26.1212C66.0883 25.5477 65.3399 24.7505 64.8122 23.7296C64.2846 22.703 64.0207 21.513 64.0207 20.1594C64.0207 18.7944 64.2846 17.6015 64.8122 16.5806C65.3399 15.554 66.0883 14.7568 67.0576 14.189C68.0326 13.6155 69.1882 13.3287 70.5245 13.3287C71.8608 13.3287 73.0136 13.6155 73.9829 14.189C74.9579 14.7568 75.7092 15.554 76.2369 16.5806C76.7645 17.6015 77.0283 18.7944 77.0283 20.1594C77.0283 21.513 76.7645 22.703 76.2369 23.7296C75.7092 24.7505 74.9579 25.5477 73.9829 26.1212C73.0136 26.689 71.8608 26.9729 70.5245 26.9729ZM70.5417 24.134C71.1497 24.134 71.6572 23.9619 72.0644 23.6178C72.4717 23.268 72.7785 22.7919 72.985 22.1897C73.1972 21.5875 73.3033 20.9022 73.3033 20.1336C73.3033 19.3651 73.1972 18.6797 72.985 18.0775C72.7785 17.4753 72.4717 16.9993 72.0644 16.6495C71.6572 16.2996 71.1497 16.1247 70.5417 16.1247C69.9281 16.1247 69.4119 16.2996 68.9932 16.6495C68.5803 16.9993 68.2677 17.4753 68.0555 18.0775C67.849 18.6797 67.7458 19.3651 67.7458 20.1336C67.7458 20.9022 67.849 21.5875 68.0555 22.1897C68.2677 22.7919 68.5803 23.268 68.9932 23.6178C69.4119 23.9619 69.9281 24.134 70.5417 24.134ZM85.3645 31.9454C84.1773 31.9454 83.1593 31.7819 82.3105 31.455C81.4674 31.1339 80.7964 30.6951 80.2974 30.1388C79.7985 29.5825 79.4744 28.9573 79.3253 28.2634L82.7148 27.8074C82.8181 28.0712 82.9815 28.3178 83.2052 28.5473C83.4289 28.7767 83.7242 28.9602 84.0913 29.0978C84.4641 29.2412 84.9172 29.3129 85.4506 29.3129C86.2478 29.3129 86.9044 29.1179 87.4206 28.7279C87.9425 28.3437 88.2035 27.6984 88.2035 26.7923V24.3749H88.0486C87.888 24.7419 87.6472 25.0889 87.326 25.4158C87.0048 25.7427 86.5919 26.0094 86.0872 26.2159C85.5825 26.4223 84.9803 26.5256 84.2806 26.5256C83.2884 26.5256 82.3851 26.2962 81.5706 25.8373C80.762 25.3728 80.1168 24.6645 79.635 23.7124C79.159 22.7546 78.921 21.5445 78.921 20.082C78.921 18.5851 79.1647 17.3348 79.6522 16.3311C80.1397 15.3275 80.7878 14.5762 81.5965 14.0772C82.4109 13.5782 83.3027 13.3287 84.272 13.3287C85.0118 13.3287 85.6312 13.4549 86.1302 13.7073C86.6292 13.9539 87.0306 14.2636 87.3346 14.6364C87.6443 15.0034 87.8823 15.3648 88.0486 15.7203H88.1863V13.5008H91.8253V26.8439C91.8253 27.968 91.55 28.9086 90.9994 29.6656C90.4488 30.4227 89.686 30.9905 88.7111 31.369C87.7418 31.7533 86.6263 31.9454 85.3645 31.9454ZM85.442 23.7727C86.0327 23.7727 86.5317 23.6264 86.9389 23.3339C87.3518 23.0357 87.6672 22.6113 87.8852 22.0607C88.1088 21.5044 88.2207 20.8391 88.2207 20.0648C88.2207 19.2905 88.1117 18.6195 87.8938 18.0517C87.6758 17.4782 87.3604 17.0337 86.9475 16.7183C86.5345 16.4028 86.0327 16.2451 85.442 16.2451C84.8397 16.2451 84.3322 16.4086 83.9192 16.7355C83.5063 17.0567 83.1937 17.504 82.9815 18.0775C82.7693 18.6511 82.6632 19.3135 82.6632 20.0648C82.6632 20.8276 82.7693 21.4872 82.9815 22.0435C83.1995 22.5941 83.512 23.0213 83.9192 23.3253C84.3322 23.6235 84.8397 23.7727 85.442 23.7727ZM98.4065 19.0755V26.7148H94.7417V13.5008H98.2345V15.8322H98.3893C98.6818 15.0637 99.1722 14.4557 99.8604 14.0084C100.549 13.5553 101.383 13.3287 102.364 13.3287C103.281 13.3287 104.082 13.5295 104.764 13.9309C105.447 14.3324 105.977 14.9059 106.356 15.6515C106.734 16.3914 106.923 17.2746 106.923 18.3012V26.7148H103.259V18.955C103.264 18.1464 103.058 17.5155 102.639 17.0624C102.22 16.6036 101.644 16.3742 100.91 16.3742C100.417 16.3742 99.9808 16.4803 99.6023 16.6925C99.2295 16.9047 98.937 17.2144 98.7248 17.6216C98.5183 18.0231 98.4122 18.5077 98.4065 19.0755ZM109.812 26.7148V13.5008H113.477V26.7148H109.812ZM111.653 11.7974C111.108 11.7974 110.641 11.6168 110.251 11.2554C109.866 10.8884 109.674 10.4496 109.674 9.9392C109.674 9.43449 109.866 9.00148 110.251 8.64016C110.641 8.2731 111.108 8.08958 111.653 8.08958C112.198 8.08958 112.662 8.2731 113.046 8.64016C113.436 9.00148 113.631 9.43449 113.631 9.9392C113.631 10.4496 113.436 10.8884 113.046 11.2554C112.662 11.6168 112.198 11.7974 111.653 11.7974ZM125.144 31.6701V24.5985H125.032C124.86 24.9656 124.617 25.3298 124.301 25.6911C123.992 26.0467 123.587 26.3421 123.088 26.5772C122.595 26.8123 121.993 26.9299 121.282 26.9299C120.278 26.9299 119.369 26.6718 118.554 26.1557C117.746 25.6337 117.103 24.8681 116.627 23.8587C116.157 22.8435 115.922 21.599 115.922 20.125C115.922 18.6109 116.166 17.352 116.653 16.3484C117.141 15.3389 117.789 14.5848 118.598 14.0858C119.412 13.5811 120.304 13.3287 121.273 13.3287C122.013 13.3287 122.629 13.4549 123.123 13.7073C123.622 13.9539 124.023 14.2636 124.327 14.6364C124.637 15.0034 124.872 15.3648 125.032 15.7203H125.187V13.5008H128.801V31.6701H125.144ZM122.443 24.0135C123.034 24.0135 123.533 23.8529 123.94 23.5318C124.353 23.2049 124.668 22.7489 124.886 22.1639C125.11 21.5789 125.222 20.8936 125.222 20.1078C125.222 19.3221 125.113 18.6396 124.895 18.0603C124.677 17.4811 124.361 17.0337 123.949 16.7183C123.536 16.4028 123.034 16.2451 122.443 16.2451C121.841 16.2451 121.333 16.4086 120.92 16.7355C120.507 17.0624 120.195 17.5155 119.983 18.0947C119.77 18.674 119.664 19.345 119.664 20.1078C119.664 20.8763 119.77 21.556 119.983 22.1467C120.201 22.7317 120.513 23.1905 120.92 23.5232C121.333 23.8501 121.841 24.0135 122.443 24.0135ZM140.455 26.7148H136.464L142.546 9.09611H147.346L153.42 26.7148H149.428L145.015 13.1223H144.877L140.455 26.7148ZM140.206 19.7895H149.635V22.6973H140.206V19.7895ZM159.266 9.09611V26.7148H155.54V9.09611H159.266Z" fill="url(#paint0_linear_649_4798)"/>
<defs>
<linearGradient id="paint0_linear_649_4798" x1="44.875" y1="18.2148" x2="160.875" y2="18.2148" gradientUnits="userSpaceOnUse">
<stop stop-color="#794CFA"/>
<stop offset="0.734792" stop-color="#361AB0"/>
<stop offset="1" stop-color="#794CFA"/>
</linearGradient>
</defs>
</svg>
