<svg width="19" height="19" viewBox="0 0 19 19" fill="none" xmlns="http://www.w3.org/2000/svg">
<g clip-path="url(#clip0_649_4697)">
<path d="M15.0644 14.2018L17.2852 16.2852M13.2852 10.8685H9.7296M7.50738 1.28516H11.0629M1.28516 7.11849V10.4518M4.39627 16.2852C2.67805 16.2852 1.28516 14.9793 1.28516 13.3685M14.174 1.28516C15.8923 1.28516 17.2852 2.59099 17.2852 4.20182M1.28516 4.20182C1.28516 2.59099 2.67805 1.28516 4.39627 1.28516M16.3963 10.8685C16.3963 8.33716 14.2075 6.28516 11.5074 6.28516C8.80729 6.28516 6.61849 8.33716 6.61849 10.8685C6.61849 13.3998 8.80729 15.4518 11.5074 15.4518C14.2075 15.4518 16.3963 13.3998 16.3963 10.8685Z" stroke="white" stroke-width="1.5" stroke-linecap="round" stroke-linejoin="round"/>
</g>
<defs>
<clipPath id="clip0_649_4697">
<rect width="18.5714" height="18.5714" fill="white"/>
</clipPath>
</defs>
</svg>
