<svg width="19" height="19" viewBox="0 0 19 19" fill="none" xmlns="http://www.w3.org/2000/svg">
<g clip-path="url(#clip0_649_4689)">
<path d="M-1.71484 3.57087H1.43669C2.23607 3.57087 3.0027 3.15979 3.56796 2.42807C4.37523 1.38304 5.5693 1.01814 6.65236 1.48549L8.18516 2.14689M-1.71484 13.8186H0.0679044C1.34334 13.8186 1.98106 13.8186 2.58409 13.9952C2.6134 14.0037 2.64263 14.0127 2.67176 14.0218C3.27101 14.2109 3.80161 14.5661 4.86284 15.2768C6.93981 16.6675 7.97836 17.3629 9.10993 17.2782C9.16328 17.2742 9.21652 17.2689 9.26965 17.2624C10.3957 17.1225 11.2782 16.2361 13.0434 14.4632L14.7852 12.7137M20.2852 3.83811H17.5167C16.3443 3.83811 15.5165 3.17622 14.6755 2.29382C14.1308 1.72227 13.4356 1.38541 12.7048 1.33902C11.8878 1.28716 10.941 1.21413 10.1476 1.4406C9.26437 1.69266 8.68126 2.38302 8.06438 3.10454L6.47256 4.96642C5.82269 5.72653 5.82269 6.95891 6.47256 7.71908C7.03346 8.37508 7.91225 8.47691 8.57225 7.96217C9.04723 7.59188 9.58689 6.99378 10.1466 6.80543C10.7764 6.59344 11.1671 7.06971 11.5241 7.57074L14.0763 11.153C15.0235 12.4824 15.4971 13.1472 16.1445 13.5018C16.792 13.8565 17.5317 13.8565 19.0114 13.8565H20.2852" stroke="white" stroke-width="1.5" stroke-linecap="round"/>
</g>
<defs>
<clipPath id="clip0_649_4689">
<rect width="18.5714" height="18.5714" fill="white"/>
</clipPath>
</defs>
</svg>
