<svg width="19" height="19" viewBox="0 0 19 19" fill="none" xmlns="http://www.w3.org/2000/svg">
<g clip-path="url(#clip0_649_4705)">
<path d="M5.68516 11.2852L7.15867 6.86468C7.2342 6.63807 7.44628 6.48522 7.68516 6.48522C7.92404 6.48522 8.13612 6.63807 8.21164 6.86468L9.68516 11.2852M12.0852 6.48522V11.2852M6.48516 9.68521H8.88516M2.88516 12.8852C2.88516 14.2106 3.95968 15.2852 5.28516 15.2852C5.28516 16.3897 6.18059 17.2852 7.28516 17.2852C8.38972 17.2852 9.28516 16.3897 9.28516 15.2852C9.28516 16.3897 10.1806 17.2851 11.2852 17.2851C12.3897 17.2851 13.2852 16.3896 13.2852 15.2851C14.6107 15.2851 15.6852 14.2105 15.6852 12.8851C15.6852 12.4301 15.5586 12.0048 15.3388 11.6423C16.4473 11.4302 17.2852 10.4555 17.2852 9.28513C17.2852 8.11466 16.4473 7.13996 15.3388 6.92791C15.5586 6.56541 15.6852 6.14005 15.6852 5.68513C15.6852 4.35965 14.6107 3.28514 13.2852 3.28514C13.2852 2.18057 12.3897 1.28516 11.2852 1.28516C10.1806 1.28516 9.28516 2.18065 9.28516 3.28521C9.28516 2.18065 8.38972 1.28523 7.28516 1.28523C6.18059 1.28523 5.28516 2.18065 5.28516 3.28521C3.95968 3.28521 2.88516 4.35973 2.88516 5.6852C2.88516 6.14012 3.01173 6.56549 3.23159 6.92799C2.12297 7.14003 1.28516 8.11474 1.28516 9.28521C1.28516 10.4556 2.12297 11.4303 3.23159 11.6424C3.01173 12.0049 2.88516 12.4302 2.88516 12.8852Z" stroke="white" stroke-width="1.5" stroke-linecap="round" stroke-linejoin="round"/>
</g>
<defs>
<clipPath id="clip0_649_4705">
<rect width="18.5714" height="18.5714" fill="white"/>
</clipPath>
</defs>
</svg>
